<svg xmlns="http://www.w3.org/2000/svg" viewBox="0 0 680 380" font-family="-apple-system, BlinkMacSystemFont, 'Segoe UI', Helvetica, Arial, sans-serif" role="img" aria-label="A distribution's mass drawn as bars on a rod, balanced on a fulcrum at the mean, which the long right tail pulls past the median.">
<text x="30.0" y="42.0" font-size="11" font-weight="700" fill="#6a6d73" letter-spacing="1">EXPECTATION IS THE BALANCE POINT</text>
<line x1="95" y1="292.0" x2="605" y2="292.0" stroke="#cfcdc4" stroke-width="3" stroke-linecap="round"/>
<text x="153.6" y="314.0" font-size="11" text-anchor="middle" fill="#6a6d73">1</text>
<text x="197.3" y="314.0" font-size="11" text-anchor="middle" fill="#6a6d73">2</text>
<text x="240.9" y="314.0" font-size="11" text-anchor="middle" fill="#6a6d73">3</text>
<text x="284.5" y="314.0" font-size="11" text-anchor="middle" fill="#6a6d73">4</text>
<text x="328.2" y="314.0" font-size="11" text-anchor="middle" fill="#6a6d73">5</text>
<text x="415.5" y="314.0" font-size="11" text-anchor="middle" fill="#6a6d73">7</text>
<text x="546.4" y="314.0" font-size="11" text-anchor="middle" fill="#6a6d73">10</text>
<rect x="141.6" y="263.8" width="24.0" height="28.2" rx="3" fill="#274b6d" opacity="0.85"/>
<text x="153.6" y="255.8" font-size="9.5" text-anchor="middle" fill="#6a6d73">0.05</text>
<rect x="185.3" y="179.1" width="24.0" height="112.9" rx="3" fill="#274b6d" opacity="0.85"/>
<text x="197.3" y="171.1" font-size="9.5" text-anchor="middle" fill="#6a6d73">0.20</text>
<rect x="228.9" y="134.0" width="24.0" height="158.0" rx="3" fill="#274b6d" opacity="0.85"/>
<text x="240.9" y="126.0" font-size="9.5" text-anchor="middle" fill="#6a6d73">0.28</text>
<rect x="272.5" y="179.1" width="24.0" height="112.9" rx="3" fill="#274b6d" opacity="0.85"/>
<text x="284.5" y="171.1" font-size="9.5" text-anchor="middle" fill="#6a6d73">0.20</text>
<rect x="316.2" y="224.3" width="24.0" height="67.7" rx="3" fill="#274b6d" opacity="0.85"/>
<text x="328.2" y="216.3" font-size="9.5" text-anchor="middle" fill="#6a6d73">0.12</text>
<rect x="403.5" y="235.6" width="24.0" height="56.4" rx="3" fill="#274b6d" opacity="0.85"/>
<text x="415.5" y="227.6" font-size="9.5" text-anchor="middle" fill="#6a6d73">0.10</text>
<rect x="534.4" y="263.8" width="24.0" height="28.2" rx="3" fill="#274b6d" opacity="0.85"/>
<text x="546.4" y="255.8" font-size="9.5" text-anchor="middle" fill="#6a6d73">0.05</text>
<line x1="240.9" y1="286.0" x2="240.9" y2="60" stroke="#6a6d73" stroke-width="1.4" stroke-dasharray="2 3"/>
<text x="240.9" y="54" font-size="11" text-anchor="middle" fill="#6a6d73">median</text>
<line x1="279.7" y1="292.0" x2="279.7" y2="82" stroke="#9c6b12" stroke-width="1.8" stroke-dasharray="5 4"/>
<polygon points="279.7,294.0 264.7,322.0 294.7,322.0" fill="#9c6b12"/>
<text x="279.7" y="76" font-size="12" font-weight="700" text-anchor="middle" fill="#9c6b12">mean = 3.89</text>
<defs><marker id="cmArrow" viewBox="0 0 10 10" refX="9" refY="5" markerWidth="6" markerHeight="6" orient="auto-start-reverse"><path d="M 0 0 L 10 5 L 0 10 z" fill="#3b3d42"/></marker></defs>
<line x1="384.9" y1="150" x2="520.2" y2="150" stroke="#3b3d42" stroke-width="1.3" marker-end="url(#cmArrow)"/>
<text x="454.7" y="140" font-size="10.5" text-anchor="middle" fill="#3b3d42">long tail, heavy leverage</text>
</svg>