<?xml version="1.0" encoding="utf-8" standalone="no"?>
<!DOCTYPE svg PUBLIC "-//W3C//DTD SVG 1.1//EN"
  "http://www.w3.org/Graphics/SVG/1.1/DTD/svg11.dtd">
<svg xmlns:xlink="http://www.w3.org/1999/xlink" width="469.452812pt" height="268.6825pt" viewBox="0 0 469.452812 268.6825" xmlns="http://www.w3.org/2000/svg" version="1.1">
 <metadata>
  <rdf:RDF xmlns:dc="http://purl.org/dc/elements/1.1/" xmlns:cc="http://creativecommons.org/ns#" xmlns:rdf="http://www.w3.org/1999/02/22-rdf-syntax-ns#">
   <cc:Work>
    <dc:type rdf:resource="http://purl.org/dc/dcmitype/StillImage"/>
    <dc:date>2026-07-30T13:48:25.718477</dc:date>
    <dc:format>image/svg+xml</dc:format>
    <dc:creator>
     <cc:Agent>
      <dc:title>Matplotlib v3.9.4, https://matplotlib.org/</dc:title>
     </cc:Agent>
    </dc:creator>
   </cc:Work>
  </rdf:RDF>
 </metadata>
 <defs>
  <style type="text/css">*{stroke-linejoin: round; stroke-linecap: butt}</style>
 </defs>
 <g id="figure_1">
  <g id="patch_1">
   <path d="M 0 268.6825 
L 469.452812 268.6825 
L 469.452812 0 
L 0 0 
L 0 268.6825 
z
" style="fill: none"/>
  </g>
  <g id="axes_1">
   <g id="patch_2">
    <path d="M 39.632812 233.959375 
L 462.252812 233.959375 
L 462.252812 10.239375 
L 39.632812 10.239375 
L 39.632812 233.959375 
z
" style="fill: none"/>
   </g>
   <g id="PolyCollection_1">
    <defs>
     <path id="m624e8cd319" d="M 110.775257 -124.211125 
L 110.775257 -123.638742 
L 111.622191 -122.837019 
L 112.469125 -122.040155 
L 113.316059 -121.24815 
L 114.162993 -120.461003 
L 115.009927 -119.678716 
L 115.856861 -118.901288 
L 116.703794 -118.128718 
L 117.550728 -117.361008 
L 118.397662 -116.598156 
L 119.244596 -115.840164 
L 120.09153 -115.08703 
L 120.938464 -114.338755 
L 121.785398 -113.595339 
L 122.632332 -112.856782 
L 123.479265 -112.123084 
L 124.326199 -111.394245 
L 125.173133 -110.670265 
L 126.020067 -109.951144 
L 126.867001 -109.236881 
L 127.713935 -108.527478 
L 128.560869 -107.822934 
L 129.407802 -107.123248 
L 130.254736 -106.428421 
L 131.10167 -105.738454 
L 131.948604 -105.053345 
L 132.795538 -104.373095 
L 133.642472 -103.697704 
L 134.489406 -103.027172 
L 135.33634 -102.361499 
L 136.183273 -101.700685 
L 137.030207 -101.04473 
L 137.877141 -100.393634 
L 138.724075 -99.747396 
L 139.571009 -99.106018 
L 140.417943 -98.469498 
L 141.264877 -97.837838 
L 142.11181 -97.211036 
L 142.958744 -96.589094 
L 143.805678 -95.97201 
L 144.652612 -95.359785 
L 145.499546 -94.752419 
L 146.34648 -94.149912 
L 147.193414 -93.552264 
L 148.040348 -92.959475 
L 148.887281 -92.371545 
L 149.734215 -91.788473 
L 150.581149 -91.210261 
L 151.428083 -90.636908 
L 152.275017 -90.068413 
L 153.121951 -89.504778 
L 153.968885 -88.946001 
L 154.815819 -88.392083 
L 155.662752 -87.843024 
L 156.509686 -87.298825 
L 157.35662 -86.759484 
L 158.203554 -86.225002 
L 159.050488 -85.695379 
L 159.897422 -85.170614 
L 160.744356 -84.650709 
L 161.591289 -84.135663 
L 162.438223 -83.625475 
L 163.285157 -83.120147 
L 164.132091 -82.619678 
L 164.979025 -82.124067 
L 165.825959 -81.633315 
L 166.672893 -81.147423 
L 167.519827 -80.666389 
L 168.36676 -80.190214 
L 169.213694 -79.718898 
L 170.060628 -79.252441 
L 170.907562 -78.790843 
L 171.754496 -78.334104 
L 172.60143 -77.882223 
L 173.448364 -77.435202 
L 174.295297 -76.99304 
L 175.142231 -76.555736 
L 175.989165 -76.123292 
L 176.836099 -75.695706 
L 177.683033 -75.272979 
L 178.529967 -74.855112 
L 179.376901 -74.442103 
L 180.223835 -74.033953 
L 181.070768 -73.630662 
L 181.917702 -73.23223 
L 182.764636 -72.838657 
L 183.61157 -72.449943 
L 184.458504 -72.066087 
L 185.305438 -71.687091 
L 186.152372 -71.312954 
L 186.999305 -70.943675 
L 187.846239 -70.579256 
L 188.693173 -70.219695 
L 189.540107 -69.864993 
L 190.387041 -69.515151 
L 191.233975 -69.170167 
L 192.080909 -68.830042 
L 192.927843 -68.494776 
L 193.774776 -68.164369 
L 194.62171 -67.838821 
L 195.468644 -67.518131 
L 196.315578 -67.202301 
L 197.162512 -66.89133 
L 198.009446 -66.585217 
L 198.85638 -66.283964 
L 199.703314 -65.987569 
L 200.550247 -65.696034 
L 201.397181 -65.409357 
L 202.244115 -65.127539 
L 203.091049 -64.85058 
L 203.937983 -64.57848 
L 204.784917 -64.311239 
L 205.631851 -64.048857 
L 206.478784 -63.791334 
L 207.325718 -63.53867 
L 208.172652 -63.290865 
L 209.019586 -63.047918 
L 209.86652 -62.809831 
L 210.713454 -62.576602 
L 211.560388 -62.348233 
L 212.407322 -62.124722 
L 213.254255 -61.90607 
L 214.101189 -61.692278 
L 214.948123 -61.483344 
L 215.795057 -61.279269 
L 216.641991 -61.080053 
L 217.488925 -60.885696 
L 218.335859 -60.696198 
L 219.182792 -60.511558 
L 220.029726 -60.331778 
L 220.87666 -60.156857 
L 221.723594 -59.986794 
L 222.570528 -59.821591 
L 223.417462 -59.661246 
L 224.264396 -59.50576 
L 225.11133 -59.355134 
L 225.958263 -59.209366 
L 226.805197 -59.068457 
L 227.652131 -58.932407 
L 228.499065 -58.801216 
L 229.345999 -58.674884 
L 230.192933 -58.553411 
L 231.039867 -58.436796 
L 231.8868 -58.325041 
L 232.733734 -58.218145 
L 233.580668 -58.116107 
L 234.427602 -58.018929 
L 235.274536 -57.926609 
L 236.12147 -57.839148 
L 236.968404 -57.756546 
L 237.815338 -57.678804 
L 238.662271 -57.60592 
L 239.509205 -57.537895 
L 240.356139 -57.474729 
L 241.203073 -57.416422 
L 242.050007 -57.362973 
L 242.896941 -57.314384 
L 243.743875 -57.270654 
L 244.590808 -57.231782 
L 245.437742 -57.19777 
L 246.284676 -57.168616 
L 247.13161 -57.144322 
L 247.978544 -57.124886 
L 248.825478 -57.110309 
L 249.672412 -57.100591 
L 250.519346 -57.095732 
L 251.366279 -57.095732 
L 252.213213 -57.100591 
L 253.060147 -57.110309 
L 253.907081 -57.124886 
L 254.754015 -57.144322 
L 255.600949 -57.168616 
L 256.447883 -57.19777 
L 257.294817 -57.231782 
L 258.14175 -57.270654 
L 258.988684 -57.314384 
L 259.835618 -57.362973 
L 260.682552 -57.416422 
L 261.529486 -57.474729 
L 262.37642 -57.537895 
L 263.223354 -57.60592 
L 264.070287 -57.678804 
L 264.917221 -57.756546 
L 265.764155 -57.839148 
L 266.611089 -57.926609 
L 267.458023 -58.018929 
L 268.304957 -58.116107 
L 269.151891 -58.218145 
L 269.998825 -58.325041 
L 270.845758 -58.436796 
L 271.692692 -58.553411 
L 272.539626 -58.674884 
L 273.38656 -58.801216 
L 274.233494 -58.932407 
L 275.080428 -59.068457 
L 275.927362 -59.209366 
L 276.774295 -59.355134 
L 277.621229 -59.50576 
L 278.468163 -59.661246 
L 279.315097 -59.821591 
L 280.162031 -59.986794 
L 281.008965 -60.156857 
L 281.855899 -60.331778 
L 282.702833 -60.511558 
L 283.549766 -60.696198 
L 284.3967 -60.885696 
L 285.243634 -61.080053 
L 286.090568 -61.279269 
L 286.937502 -61.483344 
L 287.784436 -61.692278 
L 288.63137 -61.90607 
L 289.478303 -62.124722 
L 290.325237 -62.348233 
L 291.172171 -62.576602 
L 292.019105 -62.809831 
L 292.866039 -63.047918 
L 293.712973 -63.290865 
L 294.559907 -63.53867 
L 295.406841 -63.791334 
L 296.253774 -64.048857 
L 297.100708 -64.311239 
L 297.947642 -64.57848 
L 298.794576 -64.85058 
L 299.64151 -65.127539 
L 300.488444 -65.409357 
L 301.335378 -65.696034 
L 302.182311 -65.987569 
L 303.029245 -66.283964 
L 303.876179 -66.585217 
L 304.723113 -66.89133 
L 305.570047 -67.202301 
L 306.416981 -67.518131 
L 307.263915 -67.838821 
L 308.110849 -68.164369 
L 308.957782 -68.494776 
L 309.804716 -68.830042 
L 310.65165 -69.170167 
L 311.498584 -69.515151 
L 312.345518 -69.864993 
L 313.192452 -70.219695 
L 314.039386 -70.579256 
L 314.88632 -70.943675 
L 315.733253 -71.312954 
L 316.580187 -71.687091 
L 317.427121 -72.066087 
L 318.274055 -72.449943 
L 319.120989 -72.838657 
L 319.967923 -73.23223 
L 320.814857 -73.630662 
L 321.66179 -74.033953 
L 322.508724 -74.442103 
L 323.355658 -74.855112 
L 324.202592 -75.272979 
L 325.049526 -75.695706 
L 325.89646 -76.123292 
L 326.743394 -76.555736 
L 327.590328 -76.99304 
L 328.437261 -77.435202 
L 329.284195 -77.882223 
L 330.131129 -78.334104 
L 330.978063 -78.790843 
L 331.824997 -79.252441 
L 332.671931 -79.718898 
L 333.518865 -80.190214 
L 334.365798 -80.666389 
L 335.212732 -81.147423 
L 336.059666 -81.633315 
L 336.9066 -82.124067 
L 337.753534 -82.619678 
L 338.600468 -83.120147 
L 339.447402 -83.625475 
L 340.294336 -84.135663 
L 341.141269 -84.650709 
L 341.988203 -85.170614 
L 342.835137 -85.695379 
L 343.682071 -86.225002 
L 344.529005 -86.759484 
L 345.375939 -87.298825 
L 346.222873 -87.843024 
L 347.069806 -88.392083 
L 347.91674 -88.946001 
L 348.763674 -89.504778 
L 349.610608 -90.068413 
L 350.457542 -90.636908 
L 351.304476 -91.210261 
L 352.15141 -91.788473 
L 352.998344 -92.371545 
L 353.845277 -92.959475 
L 354.692211 -93.552264 
L 355.539145 -94.149912 
L 356.386079 -94.752419 
L 357.233013 -95.359785 
L 358.079947 -95.97201 
L 358.926881 -96.589094 
L 359.773815 -97.211036 
L 360.620748 -97.837838 
L 361.467682 -98.469498 
L 362.314616 -99.106018 
L 363.16155 -99.747396 
L 364.008484 -100.393634 
L 364.855418 -101.04473 
L 365.702352 -101.700685 
L 366.549285 -102.361499 
L 367.396219 -103.027172 
L 368.243153 -103.697704 
L 369.090087 -104.373095 
L 369.937021 -105.053345 
L 370.783955 -105.738454 
L 371.630889 -106.428421 
L 372.477823 -107.123248 
L 373.324756 -107.822934 
L 374.17169 -108.527478 
L 375.018624 -109.236881 
L 375.865558 -109.951144 
L 376.712492 -110.670265 
L 377.559426 -111.394245 
L 378.40636 -112.123084 
L 379.253293 -112.856782 
L 380.100227 -113.595339 
L 380.947161 -114.338755 
L 381.794095 -115.08703 
L 382.641029 -115.840164 
L 383.487963 -116.598156 
L 384.334897 -117.361008 
L 385.181831 -118.128718 
L 386.028764 -118.901288 
L 386.875698 -119.678716 
L 387.722632 -120.461003 
L 388.569566 -121.24815 
L 389.4165 -122.040155 
L 390.263434 -122.837019 
L 391.110368 -123.638742 
L 391.110368 -124.211125 
L 391.110368 -124.211125 
L 390.263434 -124.211125 
L 389.4165 -124.211125 
L 388.569566 -124.211125 
L 387.722632 -124.211125 
L 386.875698 -124.211125 
L 386.028764 -124.211125 
L 385.181831 -124.211125 
L 384.334897 -124.211125 
L 383.487963 -124.211125 
L 382.641029 -124.211125 
L 381.794095 -124.211125 
L 380.947161 -124.211125 
L 380.100227 -124.211125 
L 379.253293 -124.211125 
L 378.40636 -124.211125 
L 377.559426 -124.211125 
L 376.712492 -124.211125 
L 375.865558 -124.211125 
L 375.018624 -124.211125 
L 374.17169 -124.211125 
L 373.324756 -124.211125 
L 372.477823 -124.211125 
L 371.630889 -124.211125 
L 370.783955 -124.211125 
L 369.937021 -124.211125 
L 369.090087 -124.211125 
L 368.243153 -124.211125 
L 367.396219 -124.211125 
L 366.549285 -124.211125 
L 365.702352 -124.211125 
L 364.855418 -124.211125 
L 364.008484 -124.211125 
L 363.16155 -124.211125 
L 362.314616 -124.211125 
L 361.467682 -124.211125 
L 360.620748 -124.211125 
L 359.773815 -124.211125 
L 358.926881 -124.211125 
L 358.079947 -124.211125 
L 357.233013 -124.211125 
L 356.386079 -124.211125 
L 355.539145 -124.211125 
L 354.692211 -124.211125 
L 353.845277 -124.211125 
L 352.998344 -124.211125 
L 352.15141 -124.211125 
L 351.304476 -124.211125 
L 350.457542 -124.211125 
L 349.610608 -124.211125 
L 348.763674 -124.211125 
L 347.91674 -124.211125 
L 347.069806 -124.211125 
L 346.222873 -124.211125 
L 345.375939 -124.211125 
L 344.529005 -124.211125 
L 343.682071 -124.211125 
L 342.835137 -124.211125 
L 341.988203 -124.211125 
L 341.141269 -124.211125 
L 340.294336 -124.211125 
L 339.447402 -124.211125 
L 338.600468 -124.211125 
L 337.753534 -124.211125 
L 336.9066 -124.211125 
L 336.059666 -124.211125 
L 335.212732 -124.211125 
L 334.365798 -124.211125 
L 333.518865 -124.211125 
L 332.671931 -124.211125 
L 331.824997 -124.211125 
L 330.978063 -124.211125 
L 330.131129 -124.211125 
L 329.284195 -124.211125 
L 328.437261 -124.211125 
L 327.590328 -124.211125 
L 326.743394 -124.211125 
L 325.89646 -124.211125 
L 325.049526 -124.211125 
L 324.202592 -124.211125 
L 323.355658 -124.211125 
L 322.508724 -124.211125 
L 321.66179 -124.211125 
L 320.814857 -124.211125 
L 319.967923 -124.211125 
L 319.120989 -124.211125 
L 318.274055 -124.211125 
L 317.427121 -124.211125 
L 316.580187 -124.211125 
L 315.733253 -124.211125 
L 314.88632 -124.211125 
L 314.039386 -124.211125 
L 313.192452 -124.211125 
L 312.345518 -124.211125 
L 311.498584 -124.211125 
L 310.65165 -124.211125 
L 309.804716 -124.211125 
L 308.957782 -124.211125 
L 308.110849 -124.211125 
L 307.263915 -124.211125 
L 306.416981 -124.211125 
L 305.570047 -124.211125 
L 304.723113 -124.211125 
L 303.876179 -124.211125 
L 303.029245 -124.211125 
L 302.182311 -124.211125 
L 301.335378 -124.211125 
L 300.488444 -124.211125 
L 299.64151 -124.211125 
L 298.794576 -124.211125 
L 297.947642 -124.211125 
L 297.100708 -124.211125 
L 296.253774 -124.211125 
L 295.406841 -124.211125 
L 294.559907 -124.211125 
L 293.712973 -124.211125 
L 292.866039 -124.211125 
L 292.019105 -124.211125 
L 291.172171 -124.211125 
L 290.325237 -124.211125 
L 289.478303 -124.211125 
L 288.63137 -124.211125 
L 287.784436 -124.211125 
L 286.937502 -124.211125 
L 286.090568 -124.211125 
L 285.243634 -124.211125 
L 284.3967 -124.211125 
L 283.549766 -124.211125 
L 282.702833 -124.211125 
L 281.855899 -124.211125 
L 281.008965 -124.211125 
L 280.162031 -124.211125 
L 279.315097 -124.211125 
L 278.468163 -124.211125 
L 277.621229 -124.211125 
L 276.774295 -124.211125 
L 275.927362 -124.211125 
L 275.080428 -124.211125 
L 274.233494 -124.211125 
L 273.38656 -124.211125 
L 272.539626 -124.211125 
L 271.692692 -124.211125 
L 270.845758 -124.211125 
L 269.998825 -124.211125 
L 269.151891 -124.211125 
L 268.304957 -124.211125 
L 267.458023 -124.211125 
L 266.611089 -124.211125 
L 265.764155 -124.211125 
L 264.917221 -124.211125 
L 264.070287 -124.211125 
L 263.223354 -124.211125 
L 262.37642 -124.211125 
L 261.529486 -124.211125 
L 260.682552 -124.211125 
L 259.835618 -124.211125 
L 258.988684 -124.211125 
L 258.14175 -124.211125 
L 257.294817 -124.211125 
L 256.447883 -124.211125 
L 255.600949 -124.211125 
L 254.754015 -124.211125 
L 253.907081 -124.211125 
L 253.060147 -124.211125 
L 252.213213 -124.211125 
L 251.366279 -124.211125 
L 250.519346 -124.211125 
L 249.672412 -124.211125 
L 248.825478 -124.211125 
L 247.978544 -124.211125 
L 247.13161 -124.211125 
L 246.284676 -124.211125 
L 245.437742 -124.211125 
L 244.590808 -124.211125 
L 243.743875 -124.211125 
L 242.896941 -124.211125 
L 242.050007 -124.211125 
L 241.203073 -124.211125 
L 240.356139 -124.211125 
L 239.509205 -124.211125 
L 238.662271 -124.211125 
L 237.815338 -124.211125 
L 236.968404 -124.211125 
L 236.12147 -124.211125 
L 235.274536 -124.211125 
L 234.427602 -124.211125 
L 233.580668 -124.211125 
L 232.733734 -124.211125 
L 231.8868 -124.211125 
L 231.039867 -124.211125 
L 230.192933 -124.211125 
L 229.345999 -124.211125 
L 228.499065 -124.211125 
L 227.652131 -124.211125 
L 226.805197 -124.211125 
L 225.958263 -124.211125 
L 225.11133 -124.211125 
L 224.264396 -124.211125 
L 223.417462 -124.211125 
L 222.570528 -124.211125 
L 221.723594 -124.211125 
L 220.87666 -124.211125 
L 220.029726 -124.211125 
L 219.182792 -124.211125 
L 218.335859 -124.211125 
L 217.488925 -124.211125 
L 216.641991 -124.211125 
L 215.795057 -124.211125 
L 214.948123 -124.211125 
L 214.101189 -124.211125 
L 213.254255 -124.211125 
L 212.407322 -124.211125 
L 211.560388 -124.211125 
L 210.713454 -124.211125 
L 209.86652 -124.211125 
L 209.019586 -124.211125 
L 208.172652 -124.211125 
L 207.325718 -124.211125 
L 206.478784 -124.211125 
L 205.631851 -124.211125 
L 204.784917 -124.211125 
L 203.937983 -124.211125 
L 203.091049 -124.211125 
L 202.244115 -124.211125 
L 201.397181 -124.211125 
L 200.550247 -124.211125 
L 199.703314 -124.211125 
L 198.85638 -124.211125 
L 198.009446 -124.211125 
L 197.162512 -124.211125 
L 196.315578 -124.211125 
L 195.468644 -124.211125 
L 194.62171 -124.211125 
L 193.774776 -124.211125 
L 192.927843 -124.211125 
L 192.080909 -124.211125 
L 191.233975 -124.211125 
L 190.387041 -124.211125 
L 189.540107 -124.211125 
L 188.693173 -124.211125 
L 187.846239 -124.211125 
L 186.999305 -124.211125 
L 186.152372 -124.211125 
L 185.305438 -124.211125 
L 184.458504 -124.211125 
L 183.61157 -124.211125 
L 182.764636 -124.211125 
L 181.917702 -124.211125 
L 181.070768 -124.211125 
L 180.223835 -124.211125 
L 179.376901 -124.211125 
L 178.529967 -124.211125 
L 177.683033 -124.211125 
L 176.836099 -124.211125 
L 175.989165 -124.211125 
L 175.142231 -124.211125 
L 174.295297 -124.211125 
L 173.448364 -124.211125 
L 172.60143 -124.211125 
L 171.754496 -124.211125 
L 170.907562 -124.211125 
L 170.060628 -124.211125 
L 169.213694 -124.211125 
L 168.36676 -124.211125 
L 167.519827 -124.211125 
L 166.672893 -124.211125 
L 165.825959 -124.211125 
L 164.979025 -124.211125 
L 164.132091 -124.211125 
L 163.285157 -124.211125 
L 162.438223 -124.211125 
L 161.591289 -124.211125 
L 160.744356 -124.211125 
L 159.897422 -124.211125 
L 159.050488 -124.211125 
L 158.203554 -124.211125 
L 157.35662 -124.211125 
L 156.509686 -124.211125 
L 155.662752 -124.211125 
L 154.815819 -124.211125 
L 153.968885 -124.211125 
L 153.121951 -124.211125 
L 152.275017 -124.211125 
L 151.428083 -124.211125 
L 150.581149 -124.211125 
L 149.734215 -124.211125 
L 148.887281 -124.211125 
L 148.040348 -124.211125 
L 147.193414 -124.211125 
L 146.34648 -124.211125 
L 145.499546 -124.211125 
L 144.652612 -124.211125 
L 143.805678 -124.211125 
L 142.958744 -124.211125 
L 142.11181 -124.211125 
L 141.264877 -124.211125 
L 140.417943 -124.211125 
L 139.571009 -124.211125 
L 138.724075 -124.211125 
L 137.877141 -124.211125 
L 137.030207 -124.211125 
L 136.183273 -124.211125 
L 135.33634 -124.211125 
L 134.489406 -124.211125 
L 133.642472 -124.211125 
L 132.795538 -124.211125 
L 131.948604 -124.211125 
L 131.10167 -124.211125 
L 130.254736 -124.211125 
L 129.407802 -124.211125 
L 128.560869 -124.211125 
L 127.713935 -124.211125 
L 126.867001 -124.211125 
L 126.020067 -124.211125 
L 125.173133 -124.211125 
L 124.326199 -124.211125 
L 123.479265 -124.211125 
L 122.632332 -124.211125 
L 121.785398 -124.211125 
L 120.938464 -124.211125 
L 120.09153 -124.211125 
L 119.244596 -124.211125 
L 118.397662 -124.211125 
L 117.550728 -124.211125 
L 116.703794 -124.211125 
L 115.856861 -124.211125 
L 115.009927 -124.211125 
L 114.162993 -124.211125 
L 113.316059 -124.211125 
L 112.469125 -124.211125 
L 111.622191 -124.211125 
L 110.775257 -124.211125 
z
" style="stroke: #9c6b12; stroke-opacity: 0.12"/>
    </defs>
    <g clip-path="url(#p241b2b75d0)">
     <use xlink:href="#m624e8cd319" x="0" y="268.6825" style="fill: #9c6b12; fill-opacity: 0.12; stroke: #9c6b12; stroke-opacity: 0.12"/>
    </g>
   </g>
   <g id="matplotlib.axis_1">
    <g id="xtick_1">
     <g id="line2d_1">
      <defs>
       <path id="m2ab6c45580" d="M 0 0 
L 0 3.5 
" style="stroke: #6a6d73; stroke-width: 0.8"/>
      </defs>
      <g>
       <use xlink:href="#m2ab6c45580" x="88.396659" y="233.959375" style="fill: #6a6d73; stroke: #6a6d73; stroke-width: 0.8"/>
      </g>
     </g>
     <g id="text_1">
      <text style="fill: #6a6d73; font: 8px 'DejaVu Sans', 'Helvetica', 'Arial', sans-serif; text-anchor: middle" x="88.396659" y="247.038125" transform="rotate(-0 88.396659 247.038125)">−2</text>
     </g>
    </g>
    <g id="xtick_2">
     <g id="line2d_2">
      <g>
       <use xlink:href="#m2ab6c45580" x="169.669736" y="233.959375" style="fill: #6a6d73; stroke: #6a6d73; stroke-width: 0.8"/>
      </g>
     </g>
     <g id="text_2">
      <text style="fill: #6a6d73; font: 8px 'DejaVu Sans', 'Helvetica', 'Arial', sans-serif; text-anchor: middle" x="169.669736" y="247.038125" transform="rotate(-0 169.669736 247.038125)">−1</text>
     </g>
    </g>
    <g id="xtick_3">
     <g id="line2d_3">
      <g>
       <use xlink:href="#m2ab6c45580" x="250.942812" y="233.959375" style="fill: #6a6d73; stroke: #6a6d73; stroke-width: 0.8"/>
      </g>
     </g>
     <g id="text_3">
      <text style="fill: #6a6d73; font: 8px 'DejaVu Sans', 'Helvetica', 'Arial', sans-serif; text-anchor: middle" x="250.942812" y="247.038125" transform="rotate(-0 250.942812 247.038125)">0</text>
     </g>
    </g>
    <g id="xtick_4">
     <g id="line2d_4">
      <g>
       <use xlink:href="#m2ab6c45580" x="332.215889" y="233.959375" style="fill: #6a6d73; stroke: #6a6d73; stroke-width: 0.8"/>
      </g>
     </g>
     <g id="text_4">
      <text style="fill: #6a6d73; font: 8px 'DejaVu Sans', 'Helvetica', 'Arial', sans-serif; text-anchor: middle" x="332.215889" y="247.038125" transform="rotate(-0 332.215889 247.038125)">1</text>
     </g>
    </g>
    <g id="xtick_5">
     <g id="line2d_5">
      <g>
       <use xlink:href="#m2ab6c45580" x="413.488966" y="233.959375" style="fill: #6a6d73; stroke: #6a6d73; stroke-width: 0.8"/>
      </g>
     </g>
     <g id="text_5">
      <text style="fill: #6a6d73; font: 8px 'DejaVu Sans', 'Helvetica', 'Arial', sans-serif; text-anchor: middle" x="413.488966" y="247.038125" transform="rotate(-0 413.488966 247.038125)">2</text>
     </g>
    </g>
    <g id="text_6">
     <text style="fill: #3b3d42; font: 9px 'DejaVu Sans', 'Helvetica', 'Arial', sans-serif; text-anchor: middle" x="250.942812" y="259.610781" transform="rotate(-0 250.942812 259.610781)">unknown parameter  θ</text>
    </g>
   </g>
   <g id="matplotlib.axis_2">
    <g id="ytick_1">
     <g id="line2d_6">
      <defs>
       <path id="m79d4ab1efa" d="M 0 0 
L -3.5 0 
" style="stroke: #6a6d73; stroke-width: 0.8"/>
      </defs>
      <g>
       <use xlink:href="#m79d4ab1efa" x="39.632812" y="233.959375" style="fill: #6a6d73; stroke: #6a6d73; stroke-width: 0.8"/>
      </g>
     </g>
     <g id="text_7">
      <text style="fill: #6a6d73; font: 8px 'DejaVu Sans', 'Helvetica', 'Arial', sans-serif; text-anchor: end" x="32.632812" y="236.99875" transform="rotate(-0 32.632812 236.99875)">0.0</text>
     </g>
    </g>
    <g id="ytick_2">
     <g id="line2d_7">
      <g>
       <use xlink:href="#m79d4ab1efa" x="39.632812" y="189.215375" style="fill: #6a6d73; stroke: #6a6d73; stroke-width: 0.8"/>
      </g>
     </g>
     <g id="text_8">
      <text style="fill: #6a6d73; font: 8px 'DejaVu Sans', 'Helvetica', 'Arial', sans-serif; text-anchor: end" x="32.632812" y="192.25475" transform="rotate(-0 32.632812 192.25475)">0.5</text>
     </g>
    </g>
    <g id="ytick_3">
     <g id="line2d_8">
      <g>
       <use xlink:href="#m79d4ab1efa" x="39.632812" y="144.471375" style="fill: #6a6d73; stroke: #6a6d73; stroke-width: 0.8"/>
      </g>
     </g>
     <g id="text_9">
      <text style="fill: #6a6d73; font: 8px 'DejaVu Sans', 'Helvetica', 'Arial', sans-serif; text-anchor: end" x="32.632812" y="147.51075" transform="rotate(-0 32.632812 147.51075)">1.0</text>
     </g>
    </g>
    <g id="ytick_4">
     <g id="line2d_9">
      <g>
       <use xlink:href="#m79d4ab1efa" x="39.632812" y="99.727375" style="fill: #6a6d73; stroke: #6a6d73; stroke-width: 0.8"/>
      </g>
     </g>
     <g id="text_10">
      <text style="fill: #6a6d73; font: 8px 'DejaVu Sans', 'Helvetica', 'Arial', sans-serif; text-anchor: end" x="32.632812" y="102.76675" transform="rotate(-0 32.632812 102.76675)">1.5</text>
     </g>
    </g>
    <g id="ytick_5">
     <g id="line2d_10">
      <g>
       <use xlink:href="#m79d4ab1efa" x="39.632812" y="54.983375" style="fill: #6a6d73; stroke: #6a6d73; stroke-width: 0.8"/>
      </g>
     </g>
     <g id="text_11">
      <text style="fill: #6a6d73; font: 8px 'DejaVu Sans', 'Helvetica', 'Arial', sans-serif; text-anchor: end" x="32.632812" y="58.02275" transform="rotate(-0 32.632812 58.02275)">2.0</text>
     </g>
    </g>
    <g id="ytick_6">
     <g id="line2d_11">
      <g>
       <use xlink:href="#m79d4ab1efa" x="39.632812" y="10.239375" style="fill: #6a6d73; stroke: #6a6d73; stroke-width: 0.8"/>
      </g>
     </g>
     <g id="text_12">
      <text style="fill: #6a6d73; font: 8px 'DejaVu Sans', 'Helvetica', 'Arial', sans-serif; text-anchor: end" x="32.632812" y="13.27875" transform="rotate(-0 32.632812 13.27875)">2.5</text>
     </g>
    </g>
    <g id="text_13">
     <text style="fill: #3b3d42; font: 9px 'DejaVu Sans', 'Helvetica', 'Arial', sans-serif; text-anchor: middle" x="14.038594" y="122.099375" transform="rotate(-90 14.038594 122.099375)">risk  R(θ, δ)</text>
    </g>
   </g>
   <g id="line2d_12">
    <path d="M 39.632813 28.280156 
L 49.796019 33.391359 
L 59.959225 38.250675 
L 70.122432 42.858104 
L 80.285638 47.213646 
L 90.448845 51.317302 
L 100.612051 55.169071 
L 110.775257 58.768953 
L 120.938464 62.116948 
L 131.10167 65.213057 
L 141.264877 68.057278 
L 150.581149 70.443206 
L 159.897422 72.617479 
L 169.213694 74.580097 
L 178.529967 76.33106 
L 187.846239 77.870368 
L 197.162512 79.198021 
L 206.478784 80.31402 
L 215.795057 81.218363 
L 225.11133 81.911052 
L 234.427602 82.392086 
L 243.743875 82.661465 
L 253.060147 82.719189 
L 262.37642 82.565258 
L 271.692692 82.199672 
L 281.008965 81.622432 
L 290.325237 80.833536 
L 299.64151 79.832986 
L 308.957782 78.620781 
L 318.274055 77.196921 
L 327.590328 75.561406 
L 336.9066 73.714236 
L 346.222873 71.655411 
L 355.539145 69.384932 
L 364.855418 66.902797 
L 374.17169 64.209008 
L 384.334897 61.028937 
L 394.498103 57.59698 
L 404.661309 53.913135 
L 414.824516 49.977404 
L 424.987722 45.789786 
L 435.150929 41.350282 
L 445.314135 36.65889 
L 455.477342 31.715612 
L 462.252812 28.280156 
L 462.252812 28.280156 
" clip-path="url(#p241b2b75d0)" style="fill: none; stroke: #b04a3f; stroke-width: 2.2; stroke-linecap: square"/>
   </g>
   <g id="line2d_13">
    <path d="M 39.632813 144.471375 
L 462.252812 144.471375 
L 462.252812 144.471375 
" clip-path="url(#p241b2b75d0)" style="fill: none; stroke: #274b6d; stroke-width: 2.4; stroke-linecap: square"/>
   </g>
   <g id="line2d_14">
    <path d="M 39.632813 60.352655 
L 47.255217 71.06659 
L 54.877622 81.386951 
L 62.500027 91.31374 
L 70.122432 100.846955 
L 77.744837 109.986598 
L 84.520307 117.780317 
L 91.295778 125.263065 
L 98.071249 132.434842 
L 104.84672 139.295647 
L 111.622191 145.845481 
L 118.397662 152.084344 
L 125.173133 158.012235 
L 131.948604 163.629155 
L 138.724075 168.935104 
L 145.499546 173.930081 
L 152.275017 178.614087 
L 158.203554 182.457498 
L 164.132091 186.062822 
L 170.060628 189.430059 
L 175.989165 192.559208 
L 181.917702 195.45027 
L 187.846239 198.103244 
L 193.774776 200.518131 
L 199.703314 202.694931 
L 205.631851 204.633643 
L 211.560388 206.334267 
L 217.488925 207.796804 
L 223.417462 209.021254 
L 229.345999 210.007616 
L 235.274536 210.755891 
L 241.203073 211.266078 
L 247.13161 211.538178 
L 253.060147 211.572191 
L 258.988684 211.368116 
L 264.917221 210.925954 
L 270.845758 210.245704 
L 276.774295 209.327366 
L 282.702833 208.170942 
L 288.63137 206.77643 
L 294.559907 205.14383 
L 300.488444 203.273143 
L 306.416981 201.164369 
L 312.345518 198.817507 
L 318.274055 196.232557 
L 324.202592 193.409521 
L 330.131129 190.348396 
L 336.059666 187.049185 
L 341.988203 183.511886 
L 347.91674 179.736499 
L 353.845277 175.723025 
L 359.773815 171.471464 
L 366.549285 166.321001 
L 373.324756 160.859566 
L 380.100227 155.087161 
L 386.875698 149.003784 
L 393.651169 142.609435 
L 400.42664 135.904116 
L 407.202111 128.887825 
L 413.977582 121.560562 
L 420.753053 113.922329 
L 427.528524 105.973124 
L 434.303995 97.712947 
L 441.9264 88.048541 
L 449.548804 77.990561 
L 457.171209 67.539008 
L 462.252812 60.352655 
L 462.252812 60.352655 
" clip-path="url(#p241b2b75d0)" style="fill: none; stroke: #9c6b12; stroke-width: 2.2; stroke-linecap: square"/>
   </g>
   <g id="patch_3">
    <path d="M 39.632812 233.959375 
L 39.632812 10.239375 
" style="fill: none; stroke: #cfcdc4; stroke-width: 0.8; stroke-linejoin: miter; stroke-linecap: square"/>
   </g>
   <g id="patch_4">
    <path d="M 39.632813 233.959375 
L 462.252812 233.959375 
" style="fill: none; stroke: #cfcdc4; stroke-width: 0.8; stroke-linejoin: miter; stroke-linecap: square"/>
   </g>
   <g id="patch_5">
    <path d="M 251.558482 96.478386 
Q 288.889989 86.23215 325.143336 76.281833 
" style="fill: none; stroke: #6a6d73; stroke-linecap: round"/>
    <path d="M 321.633973 75.585863 
L 325.143336 76.281833 
L 322.480942 78.671742 
" style="fill: none; stroke: #6a6d73; stroke-linecap: round"/>
   </g>
   <g id="text_14">
    <text style="fill: #b04a3f; font: 8px 'DejaVu Sans', 'Helvetica', 'Arial', sans-serif" transform="translate(157.478774 105.087205)">above the MLE everywhere</text>
    <text style="fill: #b04a3f; font: 8px 'DejaVu Sans', 'Helvetica', 'Arial', sans-serif" transform="translate(157.478774 114.045455)">→ inadmissible</text>
   </g>
   <g id="text_15">
    <text style="fill: #3b3d42; font: 8px 'DejaVu Sans', 'Helvetica', 'Arial', sans-serif" transform="translate(206.347187 181.57447)">below the MLE near 0,</text>
    <text style="fill: #3b3d42; font: 8px 'DejaVu Sans', 'Helvetica', 'Arial', sans-serif" transform="translate(197.066562 190.53272)">above it past the crossings</text>
   </g>
   <g id="text_16">
    <text style="fill: #274b6d; font: 8px 'DejaVu Sans', 'Helvetica', 'Arial', sans-serif; text-anchor: start" x="43.696466" y="136.417455" transform="rotate(-0 43.696466 136.417455)">flat: same risk at every θ</text>
   </g>
   <g id="legend_1">
    <g id="line2d_15">
     <path d="M 192.432187 20.718125 
L 198.432187 20.718125 
L 204.432187 20.718125 
" style="fill: none; stroke: #b04a3f; stroke-width: 2.2; stroke-linecap: square"/>
    </g>
    <g id="text_17">
     <text style="fill: #17181b; font: 8px 'DejaVu Sans', 'Helvetica', 'Arial', sans-serif; text-anchor: start" x="210.832187" y="23.518125" transform="rotate(-0 210.832187 23.518125)">inflated rule  δ(x) = 1.3x</text>
    </g>
    <g id="line2d_16">
     <path d="M 192.432187 32.460625 
L 198.432187 32.460625 
L 204.432187 32.460625 
" style="fill: none; stroke: #274b6d; stroke-width: 2.4; stroke-linecap: square"/>
    </g>
    <g id="text_18">
     <text style="fill: #17181b; font: 8px 'DejaVu Sans', 'Helvetica', 'Arial', sans-serif; text-anchor: start" x="210.832187" y="35.260625" transform="rotate(-0 210.832187 35.260625)">MLE  δ(x) = x</text>
    </g>
    <g id="line2d_17">
     <path d="M 192.432187 44.203125 
L 198.432187 44.203125 
L 204.432187 44.203125 
" style="fill: none; stroke: #9c6b12; stroke-width: 2.2; stroke-linecap: square"/>
    </g>
    <g id="text_19">
     <text style="fill: #17181b; font: 8px 'DejaVu Sans', 'Helvetica', 'Arial', sans-serif; text-anchor: start" x="210.832187" y="47.003125" transform="rotate(-0 210.832187 47.003125)">shrinkage  δ(x) = x / 2</text>
    </g>
   </g>
   <g id="line2d_18">
    <path d="M 110.173714 144.471375 
" clip-path="url(#p241b2b75d0)" style="fill: none; stroke: #17181b; stroke-width: 1.5; stroke-linecap: square"/>
    <defs>
     <path id="m1a4ba5b932" d="M 0 2 
C 0.530406 2 1.03916 1.789267 1.414214 1.414214 
C 1.789267 1.03916 2 0.530406 2 0 
C 2 -0.530406 1.789267 -1.03916 1.414214 -1.414214 
C 1.03916 -1.789267 0.530406 -2 0 -2 
C -0.530406 -2 -1.03916 -1.789267 -1.414214 -1.414214 
C -1.789267 -1.03916 -2 -0.530406 -2 0 
C -2 0.530406 -1.789267 1.03916 -1.414214 1.414214 
C -1.03916 1.789267 -0.530406 2 0 2 
z
" style="stroke: #17181b"/>
    </defs>
    <g clip-path="url(#p241b2b75d0)">
     <use xlink:href="#m1a4ba5b932" x="110.173714" y="144.471375" style="fill: #17181b; stroke: #17181b"/>
    </g>
   </g>
   <g id="line2d_19">
    <path d="M 391.711911 144.471375 
" clip-path="url(#p241b2b75d0)" style="fill: none; stroke: #17181b; stroke-width: 1.5; stroke-linecap: square"/>
    <g clip-path="url(#p241b2b75d0)">
     <use xlink:href="#m1a4ba5b932" x="391.711911" y="144.471375" style="fill: #17181b; stroke: #17181b"/>
    </g>
   </g>
  </g>
 </g>
 <defs>
  <clipPath id="p241b2b75d0">
   <rect x="39.632812" y="10.239375" width="422.62" height="223.72"/>
  </clipPath>
 </defs>
</svg>
