<?xml version="1.0" encoding="utf-8" standalone="no"?>
<!DOCTYPE svg PUBLIC "-//W3C//DTD SVG 1.1//EN"
  "http://www.w3.org/Graphics/SVG/1.1/DTD/svg11.dtd">
<svg xmlns:xlink="http://www.w3.org/1999/xlink" width="469.502813pt" height="268.452812pt" viewBox="0 0 469.502813 268.452812" xmlns="http://www.w3.org/2000/svg" version="1.1">
 <metadata>
  <rdf:RDF xmlns:dc="http://purl.org/dc/elements/1.1/" xmlns:cc="http://creativecommons.org/ns#" xmlns:rdf="http://www.w3.org/1999/02/22-rdf-syntax-ns#">
   <cc:Work>
    <dc:type rdf:resource="http://purl.org/dc/dcmitype/StillImage"/>
    <dc:date>2026-07-30T14:36:55.835949</dc:date>
    <dc:format>image/svg+xml</dc:format>
    <dc:creator>
     <cc:Agent>
      <dc:title>Matplotlib v3.9.4, https://matplotlib.org/</dc:title>
     </cc:Agent>
    </dc:creator>
   </cc:Work>
  </rdf:RDF>
 </metadata>
 <defs>
  <style type="text/css">*{stroke-linejoin: round; stroke-linecap: butt}</style>
 </defs>
 <g id="figure_1">
  <g id="patch_1">
   <path d="M 0 268.452812 
L 469.502813 268.452812 
L 469.502813 0 
L 0 0 
L 0 268.452812 
z
" style="fill: none"/>
  </g>
  <g id="axes_1">
   <g id="patch_2">
    <path d="M 39.632812 233.8 
L 457.212812 233.8 
L 457.212812 7.2 
L 39.632812 7.2 
L 39.632812 233.8 
z
" style="fill: none"/>
   </g>
   <g id="PolyCollection_1">
    <defs>
     <path id="mbf6f7a9b8e" d="M 200.16992 -46.915192 
L 200.16992 -34.652812 
L 200.764927 -34.652812 
L 201.359934 -34.652812 
L 201.95494 -34.652812 
L 202.549947 -34.652812 
L 203.144954 -34.652812 
L 203.73996 -34.652812 
L 204.334967 -34.652812 
L 204.929974 -34.652812 
L 205.52498 -34.652812 
L 206.119987 -34.652812 
L 206.714994 -34.652812 
L 207.31 -34.652812 
L 207.905007 -34.652812 
L 208.500014 -34.652812 
L 209.095021 -34.652812 
L 209.690027 -34.652812 
L 210.285034 -34.652812 
L 210.880041 -34.652812 
L 211.475047 -34.652812 
L 212.070054 -34.652812 
L 212.665061 -34.652812 
L 213.260067 -34.652812 
L 213.855074 -34.652812 
L 214.450081 -34.652812 
L 215.045088 -34.652812 
L 215.640094 -34.652812 
L 216.235101 -34.652812 
L 216.830108 -34.652812 
L 217.425114 -34.652812 
L 218.020121 -34.652812 
L 218.615128 -34.652812 
L 219.210134 -34.652812 
L 219.805141 -34.652812 
L 220.400148 -34.652812 
L 220.995154 -34.652812 
L 221.590161 -34.652812 
L 222.185168 -34.652812 
L 222.780175 -34.652812 
L 223.375181 -34.652812 
L 223.970188 -34.652812 
L 224.565195 -34.652812 
L 225.160201 -34.652812 
L 225.755208 -34.652812 
L 226.350215 -34.652812 
L 226.945221 -34.652812 
L 227.540228 -34.652812 
L 228.135235 -34.652812 
L 228.730242 -34.652812 
L 229.325248 -34.652812 
L 229.920255 -34.652812 
L 230.515262 -34.652812 
L 231.110268 -34.652812 
L 231.705275 -34.652812 
L 232.300282 -34.652812 
L 232.895288 -34.652812 
L 233.490295 -34.652812 
L 234.085302 -34.652812 
L 234.680308 -34.652812 
L 235.275315 -34.652812 
L 235.870322 -34.652812 
L 236.465329 -34.652812 
L 237.060335 -34.652812 
L 237.655342 -34.652812 
L 238.250349 -34.652812 
L 238.845355 -34.652812 
L 239.440362 -34.652812 
L 240.035369 -34.652812 
L 240.630375 -34.652812 
L 241.225382 -34.652812 
L 241.820389 -34.652812 
L 242.415396 -34.652812 
L 243.010402 -34.652812 
L 243.605409 -34.652812 
L 244.200416 -34.652812 
L 244.795422 -34.652812 
L 245.390429 -34.652812 
L 245.985436 -34.652812 
L 246.580442 -34.652812 
L 247.175449 -34.652812 
L 247.770456 -34.652812 
L 248.365462 -34.652812 
L 248.960469 -34.652812 
L 249.555476 -34.652812 
L 250.150483 -34.652812 
L 250.745489 -34.652812 
L 251.340496 -34.652812 
L 251.935503 -34.652812 
L 252.530509 -34.652812 
L 253.125516 -34.652812 
L 253.720523 -34.652812 
L 254.315529 -34.652812 
L 254.910536 -34.652812 
L 255.505543 -34.652812 
L 256.100549 -34.652812 
L 256.695556 -34.652812 
L 257.290563 -34.652812 
L 257.88557 -34.652812 
L 258.480576 -34.652812 
L 259.075583 -34.652812 
L 259.67059 -34.652812 
L 260.265596 -34.652812 
L 260.860603 -34.652812 
L 261.45561 -34.652812 
L 262.050616 -34.652812 
L 262.645623 -34.652812 
L 263.24063 -34.652812 
L 263.835637 -34.652812 
L 264.430643 -34.652812 
L 265.02565 -34.652812 
L 265.620657 -34.652812 
L 266.215663 -34.652812 
L 266.81067 -34.652812 
L 267.405677 -34.652812 
L 268.000683 -34.652812 
L 268.59569 -34.652812 
L 269.190697 -34.652812 
L 269.785703 -34.652812 
L 270.38071 -34.652812 
L 270.975717 -34.652812 
L 271.570724 -34.652812 
L 272.16573 -34.652812 
L 272.760737 -34.652812 
L 273.355744 -34.652812 
L 273.95075 -34.652812 
L 274.545757 -34.652812 
L 275.140764 -34.652812 
L 275.73577 -34.652812 
L 276.330777 -34.652812 
L 276.925784 -34.652812 
L 277.520791 -34.652812 
L 278.115797 -34.652812 
L 278.710804 -34.652812 
L 279.305811 -34.652812 
L 279.900817 -34.652812 
L 280.495824 -34.652812 
L 281.090831 -34.652812 
L 281.685837 -34.652812 
L 282.280844 -34.652812 
L 282.875851 -34.652812 
L 283.470857 -34.652812 
L 284.065864 -34.652812 
L 284.660871 -34.652812 
L 285.255878 -34.652812 
L 285.850884 -34.652812 
L 286.445891 -34.652812 
L 287.040898 -34.652812 
L 287.635904 -34.652812 
L 288.230911 -34.652812 
L 288.825918 -34.652812 
L 289.420924 -34.652812 
L 290.015931 -34.652812 
L 290.610938 -34.652812 
L 291.205945 -34.652812 
L 291.800951 -34.652812 
L 292.395958 -34.652812 
L 292.990965 -34.652812 
L 293.585971 -34.652812 
L 294.180978 -34.652812 
L 294.775985 -34.652812 
L 295.370991 -34.652812 
L 295.965998 -34.652812 
L 296.561005 -34.652812 
L 297.156011 -34.652812 
L 297.751018 -34.652812 
L 298.346025 -34.652812 
L 298.941032 -34.652812 
L 299.536038 -34.652812 
L 300.131045 -34.652812 
L 300.726052 -34.652812 
L 301.321058 -34.652812 
L 301.916065 -34.652812 
L 302.511072 -34.652812 
L 303.106078 -34.652812 
L 303.701085 -34.652812 
L 304.296092 -34.652812 
L 304.891099 -34.652812 
L 305.486105 -34.652812 
L 306.081112 -34.652812 
L 306.676119 -34.652812 
L 307.271125 -34.652812 
L 307.866132 -34.652812 
L 308.461139 -34.652812 
L 309.056145 -34.652812 
L 309.651152 -34.652812 
L 310.246159 -34.652812 
L 310.841165 -34.652812 
L 311.436172 -34.652812 
L 312.031179 -34.652812 
L 312.626186 -34.652812 
L 313.221192 -34.652812 
L 313.816199 -34.652812 
L 314.411206 -34.652812 
L 315.006212 -34.652812 
L 315.601219 -34.652812 
L 316.196226 -34.652812 
L 316.791232 -34.652812 
L 317.386239 -34.652812 
L 317.981246 -34.652812 
L 318.576253 -34.652812 
L 319.171259 -34.652812 
L 319.766266 -34.652812 
L 320.361273 -34.652812 
L 320.956279 -34.652812 
L 321.551286 -34.652812 
L 322.146293 -34.652812 
L 322.741299 -34.652812 
L 323.336306 -34.652812 
L 323.931313 -34.652812 
L 324.526319 -34.652812 
L 325.121326 -34.652812 
L 325.716333 -34.652812 
L 326.31134 -34.652812 
L 326.906346 -34.652812 
L 327.501353 -34.652812 
L 328.09636 -34.652812 
L 328.691366 -34.652812 
L 329.286373 -34.652812 
L 329.88138 -34.652812 
L 330.476386 -34.652812 
L 331.071393 -34.652812 
L 331.6664 -34.652812 
L 332.261406 -34.652812 
L 332.856413 -34.652812 
L 333.45142 -34.652812 
L 334.046427 -34.652812 
L 334.641433 -34.652812 
L 335.23644 -34.652812 
L 335.831447 -34.652812 
L 336.426453 -34.652812 
L 337.02146 -34.652812 
L 337.616467 -34.652812 
L 338.211473 -34.652812 
L 338.80648 -34.652812 
L 339.401487 -34.652812 
L 339.996494 -34.652812 
L 340.5915 -34.652812 
L 341.186507 -34.652812 
L 341.781514 -34.652812 
L 342.37652 -34.652812 
L 342.971527 -34.652812 
L 343.566534 -34.652812 
L 344.16154 -34.652812 
L 344.756547 -34.652812 
L 345.351554 -34.652812 
L 345.94656 -34.652812 
L 346.541567 -34.652812 
L 347.136574 -34.652812 
L 347.731581 -34.652812 
L 348.326587 -34.652812 
L 348.921594 -34.652812 
L 349.516601 -34.652812 
L 350.111607 -34.652812 
L 350.706614 -34.652812 
L 351.301621 -34.652812 
L 351.896627 -34.652812 
L 352.491634 -34.652812 
L 353.086641 -34.652812 
L 353.681648 -34.652812 
L 354.276654 -34.652812 
L 354.871661 -34.652812 
L 355.466668 -34.652812 
L 356.061674 -34.652812 
L 356.656681 -34.652812 
L 357.251688 -34.652812 
L 357.846694 -34.652812 
L 358.441701 -34.652812 
L 359.036708 -34.652812 
L 359.631714 -34.652812 
L 360.226721 -34.652812 
L 360.821728 -34.652812 
L 361.416735 -34.652812 
L 362.011741 -34.652812 
L 362.606748 -34.652812 
L 363.201755 -34.652812 
L 363.796761 -34.652812 
L 364.391768 -34.652812 
L 364.986775 -34.652812 
L 365.581781 -34.652812 
L 366.176788 -34.652812 
L 366.771795 -34.652812 
L 367.366802 -34.652812 
L 367.961808 -34.652812 
L 368.556815 -34.652812 
L 369.151822 -34.652812 
L 369.746828 -34.652812 
L 370.341835 -34.652812 
L 370.936842 -34.652812 
L 371.531848 -34.652812 
L 372.126855 -34.652812 
L 372.721862 -34.652812 
L 373.316868 -34.652812 
L 373.911875 -34.652812 
L 374.506882 -34.652812 
L 375.101889 -34.652812 
L 375.696895 -34.652812 
L 376.291902 -34.652812 
L 376.886909 -34.652812 
L 377.481915 -34.652812 
L 378.076922 -34.652812 
L 378.671929 -34.652812 
L 379.266935 -34.652812 
L 379.861942 -34.652812 
L 380.456949 -34.652812 
L 381.051956 -34.652812 
L 381.646962 -34.652812 
L 382.241969 -34.652812 
L 382.836976 -34.652812 
L 383.431982 -34.652812 
L 384.026989 -34.652812 
L 384.621996 -34.652812 
L 385.217002 -34.652812 
L 385.812009 -34.652812 
L 386.407016 -34.652812 
L 387.002022 -34.652812 
L 387.597029 -34.652812 
L 388.192036 -34.652812 
L 388.787043 -34.652812 
L 389.382049 -34.652812 
L 389.977056 -34.652812 
L 390.572063 -34.652812 
L 391.167069 -34.652812 
L 391.762076 -34.652812 
L 392.357083 -34.652812 
L 392.952089 -34.652812 
L 393.547096 -34.652812 
L 394.142103 -34.652812 
L 394.737109 -34.652812 
L 395.332116 -34.652812 
L 395.927123 -34.652812 
L 396.52213 -34.652812 
L 397.117136 -34.652812 
L 397.712143 -34.652812 
L 398.30715 -34.652812 
L 398.902156 -34.652812 
L 399.497163 -34.652812 
L 400.09217 -34.652812 
L 400.687176 -34.652812 
L 401.282183 -34.652812 
L 401.87719 -34.652812 
L 402.472197 -34.652812 
L 403.067203 -34.652812 
L 403.66221 -34.652812 
L 404.257217 -34.652812 
L 404.852223 -34.652812 
L 405.44723 -34.652812 
L 406.042237 -34.652812 
L 406.637243 -34.652812 
L 407.23225 -34.652812 
L 407.827257 -34.652812 
L 408.422263 -34.652812 
L 409.01727 -34.652812 
L 409.612277 -34.652812 
L 410.207284 -34.652812 
L 410.80229 -34.652812 
L 411.397297 -34.652812 
L 411.992304 -34.652812 
L 412.58731 -34.652812 
L 413.182317 -34.652812 
L 413.777324 -34.652812 
L 414.37233 -34.652812 
L 414.967337 -34.652812 
L 415.562344 -34.652812 
L 416.157351 -34.652812 
L 416.752357 -34.652812 
L 417.347364 -34.652812 
L 417.942371 -34.652812 
L 418.537377 -34.652812 
L 419.132384 -34.652812 
L 419.727391 -34.652812 
L 420.322397 -34.652812 
L 420.917404 -34.652812 
L 421.512411 -34.652812 
L 422.107417 -34.652812 
L 422.702424 -34.652812 
L 423.297431 -34.652812 
L 423.892438 -34.652812 
L 424.487444 -34.652812 
L 425.082451 -34.652812 
L 425.677458 -34.652812 
L 426.272464 -34.652812 
L 426.867471 -34.652812 
L 427.462478 -34.652812 
L 428.057484 -34.652812 
L 428.652491 -34.652812 
L 429.247498 -34.652812 
L 429.842505 -34.652812 
L 430.437511 -34.652812 
L 431.032518 -34.652812 
L 431.627525 -34.652812 
L 432.222531 -34.652812 
L 432.817538 -34.652812 
L 433.412545 -34.652812 
L 434.007551 -34.652812 
L 434.602558 -34.652812 
L 435.197565 -34.652812 
L 435.792571 -34.652812 
L 436.387578 -34.652812 
L 436.982585 -34.652812 
L 437.577592 -34.652812 
L 438.172598 -34.652812 
L 438.767605 -34.652812 
L 439.362612 -34.652812 
L 439.957618 -34.652812 
L 440.552625 -34.652812 
L 441.147632 -34.652812 
L 441.742638 -34.652812 
L 442.337645 -34.652812 
L 442.932652 -34.652812 
L 443.527659 -34.652812 
L 444.122665 -34.652812 
L 444.717672 -34.652812 
L 445.312679 -34.652812 
L 445.907685 -34.652812 
L 446.502692 -34.652812 
L 447.097699 -34.652812 
L 447.692705 -34.652812 
L 448.287712 -34.652812 
L 448.882719 -34.652812 
L 449.477725 -34.652812 
L 450.072732 -34.652812 
L 450.667739 -34.652812 
L 451.262746 -34.652812 
L 451.857752 -34.652812 
L 452.452759 -34.652812 
L 453.047766 -34.652812 
L 453.642772 -34.652812 
L 454.237779 -34.652812 
L 454.832786 -34.652812 
L 455.427792 -34.652812 
L 456.022799 -34.652812 
L 456.617806 -34.652812 
L 457.212813 -34.652812 
L 457.212813 -35.003028 
L 457.212813 -35.003028 
L 456.617806 -35.005783 
L 456.022799 -35.008561 
L 455.427792 -35.011361 
L 454.832786 -35.014183 
L 454.237779 -35.017028 
L 453.642772 -35.019895 
L 453.047766 -35.022786 
L 452.452759 -35.0257 
L 451.857752 -35.028637 
L 451.262746 -35.031597 
L 450.667739 -35.034581 
L 450.072732 -35.03759 
L 449.477725 -35.040622 
L 448.882719 -35.043679 
L 448.287712 -35.04676 
L 447.692705 -35.049866 
L 447.097699 -35.052996 
L 446.502692 -35.056152 
L 445.907685 -35.059333 
L 445.312679 -35.06254 
L 444.717672 -35.065773 
L 444.122665 -35.069031 
L 443.527659 -35.072316 
L 442.932652 -35.075627 
L 442.337645 -35.078964 
L 441.742638 -35.082329 
L 441.147632 -35.08572 
L 440.552625 -35.089139 
L 439.957618 -35.092585 
L 439.362612 -35.096059 
L 438.767605 -35.09956 
L 438.172598 -35.10309 
L 437.577592 -35.106649 
L 436.982585 -35.110236 
L 436.387578 -35.113852 
L 435.792571 -35.117496 
L 435.197565 -35.121171 
L 434.602558 -35.124875 
L 434.007551 -35.128608 
L 433.412545 -35.132372 
L 432.817538 -35.136166 
L 432.222531 -35.139991 
L 431.627525 -35.143847 
L 431.032518 -35.147733 
L 430.437511 -35.151651 
L 429.842505 -35.155601 
L 429.247498 -35.159582 
L 428.652491 -35.163596 
L 428.057484 -35.167641 
L 427.462478 -35.17172 
L 426.867471 -35.175832 
L 426.272464 -35.179976 
L 425.677458 -35.184154 
L 425.082451 -35.188366 
L 424.487444 -35.192612 
L 423.892438 -35.196893 
L 423.297431 -35.201207 
L 422.702424 -35.205557 
L 422.107417 -35.209942 
L 421.512411 -35.214362 
L 420.917404 -35.218819 
L 420.322397 -35.223311 
L 419.727391 -35.227839 
L 419.132384 -35.232405 
L 418.537377 -35.237007 
L 417.942371 -35.241646 
L 417.347364 -35.246323 
L 416.752357 -35.251038 
L 416.157351 -35.255791 
L 415.562344 -35.260583 
L 414.967337 -35.265413 
L 414.37233 -35.270283 
L 413.777324 -35.275192 
L 413.182317 -35.280141 
L 412.58731 -35.28513 
L 411.992304 -35.29016 
L 411.397297 -35.29523 
L 410.80229 -35.300342 
L 410.207284 -35.305495 
L 409.612277 -35.31069 
L 409.01727 -35.315927 
L 408.422263 -35.321207 
L 407.827257 -35.32653 
L 407.23225 -35.331896 
L 406.637243 -35.337305 
L 406.042237 -35.342759 
L 405.44723 -35.348257 
L 404.852223 -35.353799 
L 404.257217 -35.359387 
L 403.66221 -35.365021 
L 403.067203 -35.3707 
L 402.472197 -35.376425 
L 401.87719 -35.382197 
L 401.282183 -35.388016 
L 400.687176 -35.393883 
L 400.09217 -35.399797 
L 399.497163 -35.40576 
L 398.902156 -35.411771 
L 398.30715 -35.417831 
L 397.712143 -35.423941 
L 397.117136 -35.4301 
L 396.52213 -35.43631 
L 395.927123 -35.442571 
L 395.332116 -35.448882 
L 394.737109 -35.455246 
L 394.142103 -35.461661 
L 393.547096 -35.468129 
L 392.952089 -35.474649 
L 392.357083 -35.481223 
L 391.762076 -35.487851 
L 391.167069 -35.494533 
L 390.572063 -35.501269 
L 389.977056 -35.508061 
L 389.382049 -35.514908 
L 388.787043 -35.521812 
L 388.192036 -35.528772 
L 387.597029 -35.535789 
L 387.002022 -35.542863 
L 386.407016 -35.549995 
L 385.812009 -35.557186 
L 385.217002 -35.564436 
L 384.621996 -35.571746 
L 384.026989 -35.579115 
L 383.431982 -35.586545 
L 382.836976 -35.594036 
L 382.241969 -35.601589 
L 381.646962 -35.609203 
L 381.051956 -35.61688 
L 380.456949 -35.62462 
L 379.861942 -35.632424 
L 379.266935 -35.640292 
L 378.671929 -35.648225 
L 378.076922 -35.656223 
L 377.481915 -35.664287 
L 376.886909 -35.672417 
L 376.291902 -35.680614 
L 375.696895 -35.688879 
L 375.101889 -35.697211 
L 374.506882 -35.705613 
L 373.911875 -35.714083 
L 373.316868 -35.722624 
L 372.721862 -35.731235 
L 372.126855 -35.739917 
L 371.531848 -35.748671 
L 370.936842 -35.757496 
L 370.341835 -35.766395 
L 369.746828 -35.775368 
L 369.151822 -35.784414 
L 368.556815 -35.793535 
L 367.961808 -35.802732 
L 367.366802 -35.812004 
L 366.771795 -35.821354 
L 366.176788 -35.830781 
L 365.581781 -35.840285 
L 364.986775 -35.849869 
L 364.391768 -35.859531 
L 363.796761 -35.869274 
L 363.201755 -35.879098 
L 362.606748 -35.889003 
L 362.011741 -35.89899 
L 361.416735 -35.90906 
L 360.821728 -35.919213 
L 360.226721 -35.929451 
L 359.631714 -35.939773 
L 359.036708 -35.950182 
L 358.441701 -35.960677 
L 357.846694 -35.971259 
L 357.251688 -35.981929 
L 356.656681 -35.992687 
L 356.061674 -36.003535 
L 355.466668 -36.014474 
L 354.871661 -36.025503 
L 354.276654 -36.036624 
L 353.681648 -36.047838 
L 353.086641 -36.059145 
L 352.491634 -36.070547 
L 351.896627 -36.082043 
L 351.301621 -36.093635 
L 350.706614 -36.105324 
L 350.111607 -36.117111 
L 349.516601 -36.128995 
L 348.921594 -36.140979 
L 348.326587 -36.153063 
L 347.731581 -36.165248 
L 347.136574 -36.177535 
L 346.541567 -36.189924 
L 345.94656 -36.202418 
L 345.351554 -36.215015 
L 344.756547 -36.227718 
L 344.16154 -36.240527 
L 343.566534 -36.253444 
L 342.971527 -36.266468 
L 342.37652 -36.279602 
L 341.781514 -36.292846 
L 341.186507 -36.306201 
L 340.5915 -36.319668 
L 339.996494 -36.333247 
L 339.401487 -36.346941 
L 338.80648 -36.36075 
L 338.211473 -36.374675 
L 337.616467 -36.388716 
L 337.02146 -36.402876 
L 336.426453 -36.417155 
L 335.831447 -36.431553 
L 335.23644 -36.446073 
L 334.641433 -36.460715 
L 334.046427 -36.475481 
L 333.45142 -36.49037 
L 332.856413 -36.505386 
L 332.261406 -36.520527 
L 331.6664 -36.535796 
L 331.071393 -36.551195 
L 330.476386 -36.566723 
L 329.88138 -36.582382 
L 329.286373 -36.598173 
L 328.691366 -36.614097 
L 328.09636 -36.630157 
L 327.501353 -36.646351 
L 326.906346 -36.662683 
L 326.31134 -36.679153 
L 325.716333 -36.695763 
L 325.121326 -36.712513 
L 324.526319 -36.729404 
L 323.931313 -36.746439 
L 323.336306 -36.763618 
L 322.741299 -36.780943 
L 322.146293 -36.798415 
L 321.551286 -36.816035 
L 320.956279 -36.833805 
L 320.361273 -36.851725 
L 319.766266 -36.869798 
L 319.171259 -36.888024 
L 318.576253 -36.906405 
L 317.981246 -36.924943 
L 317.386239 -36.943638 
L 316.791232 -36.962493 
L 316.196226 -36.981508 
L 315.601219 -37.000685 
L 315.006212 -37.020025 
L 314.411206 -37.03953 
L 313.816199 -37.059202 
L 313.221192 -37.079041 
L 312.626186 -37.09905 
L 312.031179 -37.11923 
L 311.436172 -37.139582 
L 310.841165 -37.160108 
L 310.246159 -37.18081 
L 309.651152 -37.201688 
L 309.056145 -37.222745 
L 308.461139 -37.243983 
L 307.866132 -37.265403 
L 307.271125 -37.287006 
L 306.676119 -37.308794 
L 306.081112 -37.330769 
L 305.486105 -37.352933 
L 304.891099 -37.375286 
L 304.296092 -37.397832 
L 303.701085 -37.420572 
L 303.106078 -37.443507 
L 302.511072 -37.466639 
L 301.916065 -37.48997 
L 301.321058 -37.513502 
L 300.726052 -37.537237 
L 300.131045 -37.561176 
L 299.536038 -37.585322 
L 298.941032 -37.609676 
L 298.346025 -37.634239 
L 297.751018 -37.659015 
L 297.156011 -37.684005 
L 296.561005 -37.709211 
L 295.965998 -37.734634 
L 295.370991 -37.760278 
L 294.775985 -37.786143 
L 294.180978 -37.812232 
L 293.585971 -37.838547 
L 292.990965 -37.86509 
L 292.395958 -37.891863 
L 291.800951 -37.918869 
L 291.205945 -37.946108 
L 290.610938 -37.973584 
L 290.015931 -38.001299 
L 289.420924 -38.029255 
L 288.825918 -38.057453 
L 288.230911 -38.085897 
L 287.635904 -38.114589 
L 287.040898 -38.14353 
L 286.445891 -38.172724 
L 285.850884 -38.202172 
L 285.255878 -38.231876 
L 284.660871 -38.26184 
L 284.065864 -38.292066 
L 283.470857 -38.322555 
L 282.875851 -38.353311 
L 282.280844 -38.384336 
L 281.685837 -38.415632 
L 281.090831 -38.447203 
L 280.495824 -38.47905 
L 279.900817 -38.511175 
L 279.305811 -38.543583 
L 278.710804 -38.576275 
L 278.115797 -38.609253 
L 277.520791 -38.642522 
L 276.925784 -38.676083 
L 276.330777 -38.709938 
L 275.73577 -38.744092 
L 275.140764 -38.778546 
L 274.545757 -38.813304 
L 273.95075 -38.848368 
L 273.355744 -38.883741 
L 272.760737 -38.919426 
L 272.16573 -38.955426 
L 271.570724 -38.991744 
L 270.975717 -39.028383 
L 270.38071 -39.065346 
L 269.785703 -39.102636 
L 269.190697 -39.140256 
L 268.59569 -39.17821 
L 268.000683 -39.216499 
L 267.405677 -39.255129 
L 266.81067 -39.294101 
L 266.215663 -39.333419 
L 265.620657 -39.373087 
L 265.02565 -39.413108 
L 264.430643 -39.453484 
L 263.835637 -39.49422 
L 263.24063 -39.535318 
L 262.645623 -39.576783 
L 262.050616 -39.618618 
L 261.45561 -39.660826 
L 260.860603 -39.703412 
L 260.265596 -39.746377 
L 259.67059 -39.789727 
L 259.075583 -39.833465 
L 258.480576 -39.877594 
L 257.88557 -39.922119 
L 257.290563 -39.967043 
L 256.695556 -40.012369 
L 256.100549 -40.058103 
L 255.505543 -40.104248 
L 254.910536 -40.150807 
L 254.315529 -40.197786 
L 253.720523 -40.245187 
L 253.125516 -40.293015 
L 252.530509 -40.341275 
L 251.935503 -40.389969 
L 251.340496 -40.439103 
L 250.745489 -40.488681 
L 250.150483 -40.538708 
L 249.555476 -40.589187 
L 248.960469 -40.640122 
L 248.365462 -40.691519 
L 247.770456 -40.743383 
L 247.175449 -40.795716 
L 246.580442 -40.848525 
L 245.985436 -40.901814 
L 245.390429 -40.955587 
L 244.795422 -41.009849 
L 244.200416 -41.064606 
L 243.605409 -41.119862 
L 243.010402 -41.175621 
L 242.415396 -41.23189 
L 241.820389 -41.288672 
L 241.225382 -41.345974 
L 240.630375 -41.403799 
L 240.035369 -41.462154 
L 239.440362 -41.521044 
L 238.845355 -41.580474 
L 238.250349 -41.640449 
L 237.655342 -41.700975 
L 237.060335 -41.762058 
L 236.465329 -41.823702 
L 235.870322 -41.885914 
L 235.275315 -41.948699 
L 234.680308 -42.012063 
L 234.085302 -42.076012 
L 233.490295 -42.140552 
L 232.895288 -42.205689 
L 232.300282 -42.271428 
L 231.705275 -42.337776 
L 231.110268 -42.404739 
L 230.515262 -42.472324 
L 229.920255 -42.540536 
L 229.325248 -42.609381 
L 228.730242 -42.678868 
L 228.135235 -42.749001 
L 227.540228 -42.819787 
L 226.945221 -42.891234 
L 226.350215 -42.963348 
L 225.755208 -43.036136 
L 225.160201 -43.109604 
L 224.565195 -43.18376 
L 223.970188 -43.258611 
L 223.375181 -43.334164 
L 222.780175 -43.410426 
L 222.185168 -43.487405 
L 221.590161 -43.565107 
L 220.995154 -43.643541 
L 220.400148 -43.722714 
L 219.805141 -43.802634 
L 219.210134 -43.883309 
L 218.615128 -43.964746 
L 218.020121 -44.046953 
L 217.425114 -44.129939 
L 216.830108 -44.213711 
L 216.235101 -44.298278 
L 215.640094 -44.383649 
L 215.045088 -44.469831 
L 214.450081 -44.556833 
L 213.855074 -44.644665 
L 213.260067 -44.733334 
L 212.665061 -44.82285 
L 212.070054 -44.913221 
L 211.475047 -45.004457 
L 210.880041 -45.096566 
L 210.285034 -45.189559 
L 209.690027 -45.283445 
L 209.095021 -45.378233 
L 208.500014 -45.473933 
L 207.905007 -45.570554 
L 207.31 -45.668107 
L 206.714994 -45.766601 
L 206.119987 -45.866048 
L 205.52498 -45.966456 
L 204.929974 -46.067837 
L 204.334967 -46.170201 
L 203.73996 -46.273559 
L 203.144954 -46.377922 
L 202.549947 -46.4833 
L 201.95494 -46.589705 
L 201.359934 -46.697147 
L 200.764927 -46.805639 
L 200.16992 -46.915192 
z
" style="stroke: #b04a3f; stroke-opacity: 0.16"/>
    </defs>
    <g clip-path="url(#paa52d4afc5)">
     <use xlink:href="#mbf6f7a9b8e" x="0" y="268.452812" style="fill: #b04a3f; fill-opacity: 0.16; stroke: #b04a3f; stroke-opacity: 0.16"/>
    </g>
   </g>
   <g id="matplotlib.axis_1">
    <g id="xtick_1">
     <g id="line2d_1">
      <defs>
       <path id="mb6a398314d" d="M 0 0 
L 0 3.5 
" style="stroke: #6a6d73; stroke-width: 0.8"/>
      </defs>
      <g>
       <use xlink:href="#mb6a398314d" x="39.632812" y="233.8" style="fill: #6a6d73; stroke: #6a6d73; stroke-width: 0.8"/>
      </g>
     </g>
     <g id="text_1">
      <text style="fill: #6a6d73; font: 8px 'DejaVu Sans', 'Helvetica', 'Arial', sans-serif; text-anchor: middle" x="39.632812" y="246.87875" transform="rotate(-0 39.632812 246.87875)">0</text>
     </g>
    </g>
    <g id="xtick_2">
     <g id="line2d_2">
      <g>
       <use xlink:href="#mb6a398314d" x="123.148813" y="233.8" style="fill: #6a6d73; stroke: #6a6d73; stroke-width: 0.8"/>
      </g>
     </g>
     <g id="text_2">
      <text style="fill: #6a6d73; font: 8px 'DejaVu Sans', 'Helvetica', 'Arial', sans-serif; text-anchor: middle" x="123.148813" y="246.87875" transform="rotate(-0 123.148813 246.87875)">2</text>
     </g>
    </g>
    <g id="xtick_3">
     <g id="line2d_3">
      <g>
       <use xlink:href="#mb6a398314d" x="206.664813" y="233.8" style="fill: #6a6d73; stroke: #6a6d73; stroke-width: 0.8"/>
      </g>
     </g>
     <g id="text_3">
      <text style="fill: #6a6d73; font: 8px 'DejaVu Sans', 'Helvetica', 'Arial', sans-serif; text-anchor: middle" x="206.664813" y="246.87875" transform="rotate(-0 206.664813 246.87875)">4</text>
     </g>
    </g>
    <g id="xtick_4">
     <g id="line2d_4">
      <g>
       <use xlink:href="#mb6a398314d" x="290.180813" y="233.8" style="fill: #6a6d73; stroke: #6a6d73; stroke-width: 0.8"/>
      </g>
     </g>
     <g id="text_4">
      <text style="fill: #6a6d73; font: 8px 'DejaVu Sans', 'Helvetica', 'Arial', sans-serif; text-anchor: middle" x="290.180813" y="246.87875" transform="rotate(-0 290.180813 246.87875)">6</text>
     </g>
    </g>
    <g id="xtick_5">
     <g id="line2d_5">
      <g>
       <use xlink:href="#mb6a398314d" x="373.696813" y="233.8" style="fill: #6a6d73; stroke: #6a6d73; stroke-width: 0.8"/>
      </g>
     </g>
     <g id="text_5">
      <text style="fill: #6a6d73; font: 8px 'DejaVu Sans', 'Helvetica', 'Arial', sans-serif; text-anchor: middle" x="373.696813" y="246.87875" transform="rotate(-0 373.696813 246.87875)">8</text>
     </g>
    </g>
    <g id="xtick_6">
     <g id="line2d_6">
      <g>
       <use xlink:href="#mb6a398314d" x="457.212813" y="233.8" style="fill: #6a6d73; stroke: #6a6d73; stroke-width: 0.8"/>
      </g>
     </g>
     <g id="text_6">
      <text style="fill: #6a6d73; font: 8px 'DejaVu Sans', 'Helvetica', 'Arial', sans-serif; text-anchor: middle" x="457.212813" y="246.87875" transform="rotate(-0 457.212813 246.87875)">10</text>
     </g>
    </g>
    <g id="text_7">
     <text style="fill: #3b3d42; font: 9px 'DejaVu Sans', 'Helvetica', 'Arial', sans-serif; text-anchor: middle" x="248.422812" y="259.381094" transform="rotate(-0 248.422812 259.381094)">likelihood-ratio statistic  −2 log Λ</text>
    </g>
   </g>
   <g id="matplotlib.axis_2">
    <g id="ytick_1">
     <g id="line2d_7">
      <defs>
       <path id="md6c6052be8" d="M 0 0 
L -3.5 0 
" style="stroke: #6a6d73; stroke-width: 0.8"/>
      </defs>
      <g>
       <use xlink:href="#md6c6052be8" x="39.632812" y="233.8" style="fill: #6a6d73; stroke: #6a6d73; stroke-width: 0.8"/>
      </g>
     </g>
     <g id="text_8">
      <text style="fill: #6a6d73; font: 8px 'DejaVu Sans', 'Helvetica', 'Arial', sans-serif; text-anchor: end" x="32.632812" y="236.839375" transform="rotate(-0 32.632812 236.839375)">0.0</text>
     </g>
    </g>
    <g id="ytick_2">
     <g id="line2d_8">
      <g>
       <use xlink:href="#md6c6052be8" x="39.632812" y="192.6" style="fill: #6a6d73; stroke: #6a6d73; stroke-width: 0.8"/>
      </g>
     </g>
     <g id="text_9">
      <text style="fill: #6a6d73; font: 8px 'DejaVu Sans', 'Helvetica', 'Arial', sans-serif; text-anchor: end" x="32.632812" y="195.639375" transform="rotate(-0 32.632812 195.639375)">0.1</text>
     </g>
    </g>
    <g id="ytick_3">
     <g id="line2d_9">
      <g>
       <use xlink:href="#md6c6052be8" x="39.632812" y="151.4" style="fill: #6a6d73; stroke: #6a6d73; stroke-width: 0.8"/>
      </g>
     </g>
     <g id="text_10">
      <text style="fill: #6a6d73; font: 8px 'DejaVu Sans', 'Helvetica', 'Arial', sans-serif; text-anchor: end" x="32.632812" y="154.439375" transform="rotate(-0 32.632812 154.439375)">0.2</text>
     </g>
    </g>
    <g id="ytick_4">
     <g id="line2d_10">
      <g>
       <use xlink:href="#md6c6052be8" x="39.632812" y="110.2" style="fill: #6a6d73; stroke: #6a6d73; stroke-width: 0.8"/>
      </g>
     </g>
     <g id="text_11">
      <text style="fill: #6a6d73; font: 8px 'DejaVu Sans', 'Helvetica', 'Arial', sans-serif; text-anchor: end" x="32.632812" y="113.239375" transform="rotate(-0 32.632812 113.239375)">0.3</text>
     </g>
    </g>
    <g id="ytick_5">
     <g id="line2d_11">
      <g>
       <use xlink:href="#md6c6052be8" x="39.632812" y="69" style="fill: #6a6d73; stroke: #6a6d73; stroke-width: 0.8"/>
      </g>
     </g>
     <g id="text_12">
      <text style="fill: #6a6d73; font: 8px 'DejaVu Sans', 'Helvetica', 'Arial', sans-serif; text-anchor: end" x="32.632812" y="72.039375" transform="rotate(-0 32.632812 72.039375)">0.4</text>
     </g>
    </g>
    <g id="ytick_6">
     <g id="line2d_12">
      <g>
       <use xlink:href="#md6c6052be8" x="39.632812" y="27.8" style="fill: #6a6d73; stroke: #6a6d73; stroke-width: 0.8"/>
      </g>
     </g>
     <g id="text_13">
      <text style="fill: #6a6d73; font: 8px 'DejaVu Sans', 'Helvetica', 'Arial', sans-serif; text-anchor: end" x="32.632812" y="30.839375" transform="rotate(-0 32.632812 30.839375)">0.5</text>
     </g>
    </g>
    <g id="text_14">
     <text style="fill: #3b3d42; font: 9px 'DejaVu Sans', 'Helvetica', 'Arial', sans-serif; text-anchor: middle" x="14.038594" y="120.5" transform="rotate(-90 14.038594 120.5)">density under H₀</text>
    </g>
   </g>
   <g id="line2d_13">
    <path d="M 54.107082 -1 
L 55.583293 14.092145 
L 57.368313 29.847798 
L 59.153333 43.507321 
L 60.938353 55.505005 
L 62.723374 66.156836 
L 64.508394 75.699178 
L 66.88842 87.003281 
L 69.268447 96.976496 
L 71.648474 105.858887 
L 74.028501 113.832696 
L 76.408528 121.03927 
L 78.788554 127.590283 
L 81.168581 133.575386 
L 83.548608 139.067569 
L 86.523641 145.330305 
L 89.498675 151.012219 
L 92.473708 156.190972 
L 95.448742 160.930184 
L 98.423775 165.282597 
L 101.398809 169.292401 
L 104.968849 173.704145 
L 108.538889 177.7304 
L 112.108929 181.416553 
L 115.678969 184.800889 
L 119.844016 188.41101 
L 124.009063 191.69835 
L 128.17411 194.699935 
L 132.339157 197.447282 
L 137.09921 200.310302 
L 141.859264 202.91098 
L 147.214324 205.559661 
L 152.569385 207.949176 
L 157.924445 210.109859 
L 163.874512 212.273679 
L 170.419585 214.400688 
L 176.964659 216.295595 
L 184.104739 218.132061 
L 191.839826 219.885655 
L 200.16992 221.53762 
L 209.095021 223.07458 
L 218.615128 224.488067 
L 229.325248 225.843431 
L 240.630375 227.049013 
L 253.125516 228.159797 
L 267.405677 229.197684 
L 283.470857 230.130257 
L 301.321058 230.93931 
L 322.146293 231.654397 
L 346.541567 232.262888 
L 376.291902 232.772199 
L 413.777324 233.17762 
L 457.212813 233.449785 
L 457.212813 233.449785 
" clip-path="url(#paa52d4afc5)" style="fill: none; stroke: #274b6d; stroke-width: 2.4; stroke-linecap: square"/>
   </g>
   <g id="line2d_14">
    <path d="M 41.303133 31.879073 
L 46.063186 43.065872 
L 50.82324 53.6329 
L 55.583293 63.614496 
L 60.343347 73.043092 
L 65.1034 81.949326 
L 69.863454 90.362139 
L 74.623507 98.308865 
L 79.383561 105.815328 
L 84.143615 112.905919 
L 88.903668 119.603678 
L 93.663722 125.930369 
L 98.423775 131.906549 
L 103.183829 137.551637 
L 107.943882 142.883977 
L 113.298943 148.530564 
L 118.654003 153.826453 
L 124.009063 158.793428 
L 129.364123 163.451915 
L 134.719184 167.821073 
L 140.074244 171.918874 
L 146.024311 176.174188 
L 151.974378 180.136882 
L 157.924445 183.827077 
L 163.874512 187.263512 
L 170.419585 190.771289 
L 176.964659 194.014661 
L 183.509733 197.013557 
L 190.649813 200.027873 
L 197.789893 202.795193 
L 204.929974 205.335756 
L 212.665061 207.853657 
L 220.995154 210.316732 
L 229.325248 212.545988 
L 238.250349 214.700183 
L 247.770456 216.75789 
L 257.88557 218.701862 
L 268.59569 220.519044 
L 279.900817 222.20045 
L 291.800951 223.740907 
L 304.891099 225.200201 
L 318.576253 226.499987 
L 333.45142 227.690991 
L 350.111607 228.79579 
L 368.556815 229.787473 
L 388.787043 230.650671 
L 411.992304 231.414675 
L 438.767605 232.068939 
L 457.212813 232.411983 
L 457.212813 232.411983 
" clip-path="url(#paa52d4afc5)" style="fill: none; stroke: #9c6b12; stroke-width: 2.2; stroke-linecap: square"/>
   </g>
   <g id="line2d_15">
    <path d="M 41.303133 201.578082 
L 42.493146 192.230802 
L 43.683159 185.033545 
L 44.873173 179.1151 
L 46.063186 174.080422 
L 47.848206 167.72602 
L 49.633226 162.441959 
L 51.418246 157.972912 
L 53.203266 154.153549 
L 54.988286 150.868693 
L 56.773307 148.03379 
L 58.558327 145.584266 
L 60.343347 143.469272 
L 62.128367 141.647767 
L 63.913387 140.085963 
L 65.698407 138.755576 
L 68.078434 137.300719 
L 70.458461 136.16714 
L 72.838487 135.315112 
L 75.218514 134.711159 
L 77.598541 134.326731 
L 79.978568 134.137223 
L 82.953601 134.142116 
L 85.928635 134.382278 
L 88.903668 134.826852 
L 92.473708 135.592936 
L 96.043748 136.57575 
L 100.208795 137.951708 
L 104.968849 139.77191 
L 110.323909 142.068912 
L 116.868983 145.143765 
L 124.60407 149.036 
L 135.909197 154.996208 
L 160.899478 168.230011 
L 172.204605 173.921382 
L 182.319719 178.765084 
L 191.839826 183.082512 
L 201.359934 187.152756 
L 210.880041 190.970748 
L 220.400148 194.537057 
L 229.920255 197.856357 
L 239.440362 200.936249 
L 248.960469 203.786361 
L 259.075583 206.575117 
L 269.190697 209.131001 
L 279.900817 211.599675 
L 290.610938 213.841164 
L 301.916065 215.979726 
L 313.816199 217.999626 
L 326.31134 219.888692 
L 339.401487 221.638337 
L 353.086641 223.243451 
L 367.961808 224.758574 
L 383.431982 226.112454 
L 400.687176 227.392446 
L 419.132384 228.532627 
L 439.362612 229.557013 
L 457.212813 230.297849 
L 457.212813 230.297849 
" clip-path="url(#paa52d4afc5)" style="fill: none; stroke: #6b4f9c; stroke-width: 2.2; stroke-linecap: square"/>
   </g>
   <g id="line2d_16">
    <path d="M 199.983532 233.8 
L 199.983532 7.2 
" clip-path="url(#paa52d4afc5)" style="fill: none; stroke-dasharray: 4,3; stroke-dashoffset: 0; stroke: #6a6d73"/>
   </g>
   <g id="patch_3">
    <path d="M 39.632812 233.8 
L 39.632812 7.2 
" style="fill: none; stroke: #cfcdc4; stroke-width: 0.8; stroke-linejoin: miter; stroke-linecap: square"/>
   </g>
   <g id="patch_4">
    <path d="M 39.632812 233.8 
L 457.212813 233.8 
" style="fill: none; stroke: #cfcdc4; stroke-width: 0.8; stroke-linejoin: miter; stroke-linecap: square"/>
   </g>
   <g id="patch_5">
    <path d="M 303.858504 156.542117 
Q 272.639367 190.724526 242.174206 224.081394 
" style="fill: none; stroke: #6a6d73; stroke-linecap: round"/>
    <path d="M 245.513631 222.797557 
L 242.174206 224.081394 
L 243.150791 220.639551 
" style="fill: none; stroke: #6a6d73; stroke-linecap: round"/>
   </g>
   <g id="text_15">
    <text style="fill: #b04a3f; font: 8px 'DejaVu Sans', 'Helvetica', 'Arial', sans-serif" transform="translate(269.301812 142.44175)">tail past the cutoff = α</text>
    <text style="fill: #b04a3f; font: 8px 'DejaVu Sans', 'Helvetica', 'Arial', sans-serif" transform="translate(269.301812 151.4)">(reject H₀ out here)</text>
   </g>
   <g id="text_16">
    <text style="fill: #3b3d42; font: 8px 'DejaVu Sans', 'Helvetica', 'Arial', sans-serif" transform="translate(113.242092 46.23875)">5% cutoff for df = 1</text>
    <text style="fill: #3b3d42; font: 8px 'DejaVu Sans', 'Helvetica', 'Arial', sans-serif" transform="translate(122.075843 55.197)">(−2 log Λ = 3.84)</text>
   </g>
   <g id="legend_1">
    <g id="line2d_17">
     <path d="M 314.159063 17.67875 
L 320.159063 17.67875 
L 326.159063 17.67875 
" style="fill: none; stroke: #274b6d; stroke-width: 2.4; stroke-linecap: square"/>
    </g>
    <g id="text_17">
     <text style="fill: #17181b; font: 8px 'DejaVu Sans', 'Helvetica', 'Arial', sans-serif; text-anchor: start" x="332.559062" y="20.47875" transform="rotate(-0 332.559062 20.47875)">χ², df = 1  (one restriction)</text>
    </g>
    <g id="line2d_18">
     <path d="M 314.159063 29.425 
L 320.159063 29.425 
L 326.159063 29.425 
" style="fill: none; stroke: #9c6b12; stroke-width: 2.2; stroke-linecap: square"/>
    </g>
    <g id="text_18">
     <text style="fill: #17181b; font: 8px 'DejaVu Sans', 'Helvetica', 'Arial', sans-serif; text-anchor: start" x="332.559062" y="32.225" transform="rotate(-0 332.559062 32.225)">χ², df = 2  (two restrictions)</text>
    </g>
    <g id="line2d_19">
     <path d="M 314.159063 41.17125 
L 320.159063 41.17125 
L 326.159063 41.17125 
" style="fill: none; stroke: #6b4f9c; stroke-width: 2.2; stroke-linecap: square"/>
    </g>
    <g id="text_19">
     <text style="fill: #17181b; font: 8px 'DejaVu Sans', 'Helvetica', 'Arial', sans-serif; text-anchor: start" x="332.559062" y="43.97125" transform="rotate(-0 332.559062 43.97125)">χ², df = 3  (three restrictions)</text>
    </g>
   </g>
  </g>
 </g>
 <defs>
  <clipPath id="paa52d4afc5">
   <rect x="39.632812" y="7.2" width="417.58" height="226.6"/>
  </clipPath>
 </defs>
</svg>
